<svg width="50" height="50" viewBox="0 0 50 50" fill="none" xmlns="http://www.w3.org/2000/svg">
<rect width="50" height="50" rx="3" fill="#2589BD"/>
<path d="M18.4927 21.0557L25.08 14.9L37.45 27.3L30.7 33.28L18.4927 21.0557Z" fill="#B0413E"/>
<path d="M17.313 18.0028L26.3193 18.0049L26.3193 38.4979L17.3132 38.4979L17.313 18.0028Z" fill="#B0413E"/>
<path d="M20.3775 13.7587L13.6188 7L11 9.61752L17.6641 16.2829C17.4352 16.831 17.3168 17.4189 17.3159 18.0129C17.3149 18.6068 17.4313 19.1952 17.6583 19.744C17.8854 20.2929 18.2186 20.7915 18.639 21.2112C19.0593 21.6308 19.5584 21.9633 20.1076 22.1896V34.3265C19.5561 34.554 19.0552 34.8886 18.6338 35.3109C18.2154 35.7291 17.8836 36.2256 17.6572 36.7721C17.4307 37.3186 17.3142 37.9043 17.3142 38.4958C17.3142 39.0873 17.4307 39.6731 17.6572 40.2196C17.8836 40.766 18.2154 41.2625 18.6338 41.6807C19.052 42.099 19.5484 42.4308 20.0949 42.6571C20.6413 42.8835 21.2269 43 21.8184 43C22.4098 43 22.9955 42.8835 23.5419 42.6571C24.0883 42.4308 24.5848 42.099 25.003 41.6807C25.5088 41.1749 25.8869 40.5558 26.1059 39.8747C26.3248 39.1937 26.3784 38.4702 26.2621 37.7644C26.1458 37.0585 25.863 36.3905 25.4372 35.8156C25.0113 35.2408 24.4546 34.7757 23.8132 34.4589V22.4691L29.89 28.544C29.5514 29.3661 29.4635 30.2699 29.6374 31.1418C29.8113 32.0137 30.2393 32.8147 30.8674 33.4439C31.713 34.2886 32.8594 34.7631 34.0546 34.7631C35.2498 34.7631 36.3962 34.2886 37.2417 33.4439C37.66 33.0257 37.9918 32.5292 38.2181 31.9828C38.4445 31.4364 38.561 30.8507 38.561 30.2593C38.561 29.6678 38.4445 29.0822 38.2181 28.5358C37.9918 27.9894 37.66 27.4929 37.2417 27.0747C36.6446 26.477 35.8912 26.0596 35.0678 25.8705C34.2444 25.6813 33.3843 25.728 32.5862 26.0052L26.0699 19.4908C26.3468 18.6929 26.3935 17.8332 26.2047 17.01C26.0159 16.1869 25.5992 15.4334 25.0023 14.8359C24.4087 14.2427 23.661 13.8275 22.8437 13.6371C22.0264 13.4467 21.1721 13.4889 20.3775 13.7587Z" fill="#292F36"/>
</svg>
